# xmcd
# 
# Track frame offsets:
#     150
#     15669
#     32755
#     56683
#     73581
#     99862
#     115892
#     131640
#     151280
#     166268
#     180011
#     198722
#     214845
#     232911
#     244957
#     261608
# 
# Disc length: 3699
# 
# Revision: 0
# Processed by: cddbd v1.5.2PL0 Copyright (c) Steve Scherf et al.
# Submitted via: fre:ac v1.0.27
# 
DISCID=da0e7110
DTITLE=Various Artist - ACT 07: Magic Moments 2
DYEAR=2004
DGENRE=Jazz
TTITLE0=Esbjörn Svensson Trio - O.D.R.I.P.
TTITLE1=Norah Jones, Joël Harrison - I Walk The Line
TTITLE2=Gerardo Nuñez, Paolo Fresu, Perico Sambeat - La Habana A Oscuras
TTITLE3=Viktoria Tolstoy - Dear Diary
TTITLE4=Terry Lyne Carrington, Greg Osby, Adam Rogers, Jimmy Haslip - Ethiopia
TTITLE5=Ramón Valle Trio - Dilsburgh Morning Light
TTITLE6=Muriel Zoe - Bye Bye Blackbird
TTITLE7=Perico Sambeat, Brad Mehldau - Mirall
TTITLE8=Rebekka Bakken, Julia Hülsmann Trio - Same Girl
TTITLE9=Richie Beirach, Gregor Hübner, George Mraz - Chant
TTITLE10=Huong Thanh, Nguyên Lê,Paul  McCandless - South Delta Song
TTITLE11=Marsmobil, Roberto Di Gioia, Till Brönner - Hand In Hand
TTITLE12=Rigmor Gustafsson, Nils Landgren - Makin' Whoopee
TTITLE13=Elbtonalpercussion, Christopher Dell - Freak Taeb
TTITLE14=Jens Thomas, Christof Lauer - Be Yourself
TTITLE15=Nils Landgren Funk Unit - Thank You For The Music
EXTD=YEAR: 2004
EXTT0=
EXTT1=
EXTT2=
EXTT3=
EXTT4=
EXTT5=
EXTT6=
EXTT7=
EXTT8=
EXTT9=
EXTT10=
EXTT11=
EXTT12=
EXTT13=
EXTT14=
EXTT15=
PLAYORDER=
